<?xml version="1.0" standalone="no"?>
<!DOCTYPE svg PUBLIC "-//W3C//DTD SVG 20010904//EN"
 "http://www.w3.org/TR/2001/REC-SVG-20010904/DTD/svg10.dtd">
<svg version="1.0" xmlns="http://www.w3.org/2000/svg"
 width="577.000000pt" height="577.000000pt" viewBox="0 0 577.000000 577.000000"
 preserveAspectRatio="xMidYMid meet">
<metadata>
Created by potrace 1.14, written by Peter Selinger 2001-2017
</metadata>
<g transform="translate(0.000000,577.000000) scale(0.100000,-0.100000)"
fill="#000000" stroke="none">
<path d="M2754 3684 c-129 -22 -211 -75 -285 -181 -60 -86 -70 -134 -72 -330
-1 -97 -5 -153 -12 -154 -65 -7 -82 -10 -92 -14 -7 -2 -13 -1 -14 3 0 4 -1
153 -2 332 l-2 325 -144 0 -145 0 -30 -41 c-17 -23 -38 -52 -48 -65 -50 -72
-124 -169 -129 -169 -3 0 -44 56 -92 124 -48 69 -94 131 -102 139 -11 11 -46
15 -154 15 l-141 0 -1 -281 c0 -155 -1 -358 -2 -450 -1 -93 1 -171 6 -174 7
-4 136 32 162 45 7 3 7 2 0 -5 -5 -5 -44 -22 -85 -38 -41 -16 -77 -32 -80 -36
-4 -6 -5 -405 -1 -417 1 -3 80 54 108 78 7 5 14 10 17 10 2 0 31 17 63 38 32
21 65 42 73 45 8 4 29 15 45 25 85 52 356 182 379 182 7 0 16 4 22 9 13 13
199 77 339 117 160 46 377 95 480 108 17 2 46 7 65 10 80 14 98 16 150 21 30
3 69 7 85 10 127 19 567 26 750 12 55 -5 129 -10 165 -13 79 -6 96 -17 20 -13
l-55 3 -5 -194 c-5 -210 -8 -223 -64 -273 -70 -63 -172 -51 -232 29 l-29 37
-3 205 -4 205 -124 -6 c-69 -4 -129 -9 -134 -12 -5 -3 -8 -93 -7 -213 3 -185
5 -213 25 -262 47 -118 155 -218 275 -255 75 -22 195 -24 254 -3 l41 15 79
-73 c43 -41 80 -74 83 -74 3 0 45 39 94 86 l89 85 -71 72 -71 72 20 37 c35 68
45 144 44 326 l-2 173 41 -6 c23 -4 50 -9 61 -12 11 -3 17 -2 13 2 -3 4 -30
12 -60 19 l-53 11 -1 195 c-1 118 -6 213 -14 240 -12 46 -46 115 -67 137 -6 7
-20 23 -30 36 -29 36 -94 82 -148 104 -162 68 -348 34 -471 -86 -103 -99 -126
-164 -129 -361 l-2 -145 -279 -3 c-154 -1 -317 -3 -364 -5 l-85 -2 -1 125 c0
75 5 137 12 156 27 71 80 107 152 103 108 -5 164 -75 163 -201 0 -38 3 -68 7
-69 47 -4 228 -2 241 3 17 6 18 17 15 95 -2 49 -10 109 -19 133 -72 205 -269
321 -481 284z m1143 -261 c19 -9 46 -34 61 -55 24 -37 25 -46 28 -204 l3 -165
-51 6 c-28 4 -58 8 -67 10 -28 5 -175 19 -194 18 -16 0 -18 11 -16 140 0 78 5
152 11 166 32 85 139 125 225 84z m-2227 -293 c58 -82 108 -149 112 -150 4 0
17 15 29 33 69 100 194 267 199 267 6 0 5 -319 -2 -325 -2 -2 -19 -7 -38 -10
-19 -3 -78 -17 -130 -31 -52 -14 -104 -27 -115 -30 -24 -5 -158 -45 -167 -50
-4 -3 -6 97 -6 221 0 124 3 225 7 225 3 -1 53 -68 111 -150z"/>
<path d="M2620 2823 c-8 -3 -22 -7 -30 -10 -8 -4 -26 -8 -40 -10 -14 -2 -54
-14 -90 -26 l-64 -23 -1 -79 c-1 -109 10 -169 46 -243 126 -261 483 -318 690
-110 89 89 126 188 125 333 l-1 69 -130 0 -130 0 -6 -79 c-7 -109 -35 -159
-104 -185 -74 -29 -154 -1 -196 67 -20 32 -23 50 -24 166 -1 135 -3 142 -45
130z"/>
<path d="M2185 2685 c-44 -17 -100 -39 -126 -49 l-45 -20 0 -198 c0 -109 3
-199 6 -199 3 -1 62 -2 133 -3 l127 -1 0 240 c0 132 -4 245 -8 250 -4 7 -35 0
-87 -20z"/>
<path d="M1480 2323 c-36 -24 -80 -54 -97 -66 -55 -37 -48 -42 61 -42 l101 0
3 37 c2 21 2 55 0 77 l-3 39 -65 -45z"/>
</g>
</svg>
